<?xml version="1.0" standalone="no"?><!-- Generator: Gravit.io --><svg xmlns="http://www.w3.org/2000/svg" xmlns:xlink="http://www.w3.org/1999/xlink" style="isolation:isolate" viewBox="0 0 200 200" width="200" height="200"><defs><clipPath id="_clipPath_AsZg2sXtZgFZvICa93KEx7cR2m0IyejY"><rect width="200" height="200"/></clipPath></defs><g clip-path="url(#_clipPath_AsZg2sXtZgFZvICa93KEx7cR2m0IyejY)"><g id="Group"><path d=" M 87.857 88.286 C 83.498 81.337 84.087 67.481 81.135 65.791 C 71.499 60.274 65 49.89 65 38 C 65 20.339 79.339 6 97 6 C 114.661 6 129 20.339 129 38 C 129 50.3 122.045 60.988 111.857 66.344 C 107.417 68.679 111.504 88.286 106.143 88.286 C 102.883 88.286 90.405 92.347 87.857 88.286 Z " fill="rgb(221,163,63)"/><path d=" M 90.238 77.808 C 87.014 72.668 87.449 62.42 85.266 61.17 C 78.139 57.09 73.332 49.41 73.332 40.616 C 73.332 27.553 83.937 16.948 97 16.948 C 110.063 16.948 120.668 27.553 120.668 40.616 C 120.668 49.713 115.524 57.618 107.989 61.579 C 104.704 63.306 107.728 77.808 103.762 77.808 C 101.351 77.808 92.122 80.812 90.238 77.808 Z " fill="rgb(236,204,55)"/><path d=" M 97 60.857 Q 83.073 48.848 83.073 43.674 C 83.073 35.987 89.314 29.747 97 29.747 C 104.686 29.747 110.927 35.987 110.927 43.674 Q 110.927 49.027 97 60.857 Z " fill="rgb(241,218,101)"/><path d=" M 92.429 74.571 L 81.135 38 Q 85.761 44.286 90.238 42.571 C 94.714 40.857 95.857 33.429 92.429 33.429 C 89 33.429 91.286 40.571 97 42.571 C 102.714 44.571 106.429 35.714 101.571 33.429 C 96.714 31.143 100.692 43.143 107.989 42.571 Q 115.286 42 115.286 38 L 101.571 74.571" fill="none" vector-effect="non-scaling-stroke" stroke-width="1.561" stroke="rgb(255,255,255)" stroke-linejoin="round" stroke-linecap="round" stroke-miterlimit="3"/><rect x="83.286" y="74.571" width="27.429" height="15.519" transform="matrix(1,0,0,1,0,0)" fill="rgb(195,196,198)"/><path d="M 83.675 80.045 L 111.332 80.045 C 112.178 80.045 112.865 80.558 112.865 81.188 L 112.865 81.188 C 112.865 81.819 112.178 82.331 111.332 82.331 L 83.675 82.331 C 82.829 82.331 82.143 81.819 82.143 81.188 L 82.143 81.188 C 82.143 80.558 82.829 80.045 83.675 80.045 Z" style="stroke:none;fill:#D3D7E0;stroke-miterlimit:10;"/><path d="M 83.421 73.236 L 113 73.236 C 114.262 73.236 115.286 74.26 115.286 75.522 L 115.286 75.522 C 115.286 76.784 114.262 77.808 113 77.808 L 83.421 77.808 C 82.159 77.808 81.135 76.784 81.135 75.522 L 81.135 75.522 C 81.135 74.26 82.159 73.236 83.421 73.236 Z" style="stroke:none;fill:#D3D7E0;stroke-miterlimit:10;"/><path d="M 82.278 86 L 111.722 86 C 112.353 86 112.865 86.512 112.865 87.143 L 112.865 87.143 C 112.865 87.774 112.353 88.286 111.722 88.286 L 82.278 88.286 C 81.647 88.286 81.135 87.774 81.135 87.143 L 81.135 87.143 C 81.135 86.512 81.647 86 82.278 86 Z" style="stroke:none;fill:#D3D7E0;stroke-miterlimit:10;"/><path d=" M 94.659 15.736 C 95.868 15.473 97.131 15.366 98.419 15.366 C 107.757 15.366 115.794 20.977 119.203 29.08" fill="none" vector-effect="non-scaling-stroke" stroke-width="1.561" stroke="rgb(255,255,255)" stroke-linejoin="miter" stroke-linecap="round" stroke-miterlimit="3"/><g id="Group"><rect x="7.105" y="103.554" width="185.79" height="32.747" transform="matrix(1,0,0,1,0,0)" fill="rgb(114,139,220)"/><path d="M 22.82 98.245 L 177.18 98.245 C 182.924 98.245 187.587 102.909 187.587 108.652 L 187.587 131.202 C 187.587 136.945 182.924 141.609 177.18 141.609 L 22.82 141.609 C 17.076 141.609 12.413 136.945 12.413 131.202 L 12.413 108.652 C 12.413 102.909 17.076 98.245 22.82 98.245 Z" style="stroke:none;fill:#D8623E;stroke-miterlimit:10;"/><rect x="23.03" y="80.563" width="153.941" height="119.437" transform="matrix(1,0,0,1,0,0)" fill="rgb(114,139,220)"/><rect x="41.609" y="157.534" width="116.782" height="31.85" transform="matrix(1,0,0,1,0,0)" fill="rgb(255,255,255)"/><path d="M 45.59 160.188 L 45.59 160.188 C 46.322 160.188 46.917 160.782 46.917 161.515 L 46.917 185.402 C 46.917 186.135 46.322 186.729 45.59 186.729 L 45.59 186.729 C 44.858 186.729 44.263 186.135 44.263 185.402 L 44.263 161.515 C 44.263 160.782 44.858 160.188 45.59 160.188 Z" style="stroke:none;fill:#5B4C4C;stroke-miterlimit:10;"/><path d="M 63.727 160.188 L 63.727 160.188 C 64.459 160.188 65.054 160.782 65.054 161.515 L 65.054 185.402 C 65.054 186.135 64.459 186.729 63.727 186.729 L 63.727 186.729 C 62.994 186.729 62.4 186.135 62.4 185.402 L 62.4 161.515 C 62.4 160.782 62.994 160.188 63.727 160.188 Z" style="stroke:none;fill:#5B4C4C;stroke-miterlimit:10;"/><path d="M 81.863 160.188 L 81.863 160.188 C 82.596 160.188 83.19 160.782 83.19 161.515 L 83.19 185.402 C 83.19 186.135 82.596 186.729 81.863 186.729 L 81.863 186.729 C 81.131 186.729 80.536 186.135 80.536 185.402 L 80.536 161.515 C 80.536 160.782 81.131 160.188 81.863 160.188 Z" style="stroke:none;fill:#5B4C4C;stroke-miterlimit:10;"/><path d="M 100 160.188 L 100 160.188 C 100.732 160.188 101.327 160.782 101.327 161.515 L 101.327 185.402 C 101.327 186.135 100.732 186.729 100 186.729 L 100 186.729 C 99.268 186.729 98.673 186.135 98.673 185.402 L 98.673 161.515 C 98.673 160.782 99.268 160.188 100 160.188 Z" style="stroke:none;fill:#5B4C4C;stroke-miterlimit:10;"/><path d="M 118.137 160.188 L 118.137 160.188 C 118.869 160.188 119.464 160.782 119.464 161.515 L 119.464 185.402 C 119.464 186.135 118.869 186.729 118.137 186.729 L 118.137 186.729 C 117.404 186.729 116.81 186.135 116.81 185.402 L 116.81 161.515 C 116.81 160.782 117.404 160.188 118.137 160.188 Z" style="stroke:none;fill:#5B4C4C;stroke-miterlimit:10;"/><path d="M 136.273 160.188 L 136.273 160.188 C 137.006 160.188 137.6 160.782 137.6 161.515 L 137.6 185.402 C 137.6 186.135 137.006 186.729 136.273 186.729 L 136.273 186.729 C 135.541 186.729 134.946 186.135 134.946 185.402 L 134.946 161.515 C 134.946 160.782 135.541 160.188 136.273 160.188 Z" style="stroke:none;fill:#5B4C4C;stroke-miterlimit:10;"/><path d="M 154.41 160.188 L 154.41 160.188 C 155.142 160.188 155.737 160.782 155.737 161.515 L 155.737 185.402 C 155.737 186.135 155.142 186.729 154.41 186.729 L 154.41 186.729 C 153.678 186.729 153.083 186.135 153.083 185.402 L 153.083 161.515 C 153.083 160.782 153.678 160.188 154.41 160.188 Z" style="stroke:none;fill:#5B4C4C;stroke-miterlimit:10;"/><path d=" M 39.852 120.824 C 39.852 109.353 49.165 100.04 60.636 100.04 C 72.108 100.04 81.421 109.353 81.421 120.824 C 81.421 132.296 72.108 141.609 60.636 141.609 C 49.165 141.609 39.852 132.296 39.852 120.824 Z " fill="rgb(255,255,255)"/><path d=" M 113.271 119.927 C 113.271 108.456 122.584 99.142 134.055 99.142 C 145.527 99.142 154.84 108.456 154.84 119.927 C 154.84 131.398 145.527 140.712 134.055 140.712 C 122.584 140.712 113.271 131.398 113.271 119.927 Z " fill="rgb(255,255,255)"/><path d=" M 120.336 119.927 C 120.336 112.355 126.483 106.208 134.055 106.208 C 141.627 106.208 147.775 112.355 147.775 119.927 C 147.775 127.499 141.627 133.646 134.055 133.646 C 126.483 133.646 120.336 127.499 120.336 119.927 Z " fill="rgb(216,98,62)"/><path d=" M 46.917 120.824 C 46.917 113.252 53.064 107.105 60.636 107.105 C 68.208 107.105 74.356 113.252 74.356 120.824 C 74.356 128.396 68.208 134.543 60.636 134.543 C 53.064 134.543 46.917 128.396 46.917 120.824 Z " fill="rgb(216,98,62)"/><path d=" M 107.233 144.263 L 107.233 133.646 C 107.233 130.717 104.855 128.338 101.925 128.338 L 91.308 128.338 C 88.379 128.338 86 130.717 86 133.646 L 86 144.263 L 107.233 144.263 Z " fill="rgb(91,76,76)"/></g></g></g></svg>